<mxfile host="app.diagrams.net" agent="Mozilla/5.0 (Macintosh; Intel Mac OS X 10_15_7) AppleWebKit/537.36 (KHTML, like Gecko) Chrome/131.0.0.0 Safari/537.36" version="26.1.1">
  <diagram name="第 1 页" id="8iye4vX-pn71CnLC4Ab7">
    <mxGraphModel dx="1242" dy="769" grid="1" gridSize="9" guides="1" tooltips="1" connect="1" arrows="1" fold="1" page="1" pageScale="1" pageWidth="827" pageHeight="1169" math="0" shadow="0">
      <root>
        <mxCell id="0" />
        <mxCell id="1" parent="0" />
        <mxCell id="4gN3m5vvTqZ1XDgv7lfD-36" value="" style="rounded=1;whiteSpace=wrap;html=1;fillColor=#FFE6CC;" vertex="1" parent="1">
          <mxGeometry y="18" width="747" height="559" as="geometry" />
        </mxCell>
        <mxCell id="4gN3m5vvTqZ1XDgv7lfD-20" value="" style="rounded=1;whiteSpace=wrap;html=1;fillColor=#DAE8FC;" vertex="1" parent="1">
          <mxGeometry x="252" y="54" width="405" height="171" as="geometry" />
        </mxCell>
        <mxCell id="4gN3m5vvTqZ1XDgv7lfD-32" value="" style="group" vertex="1" connectable="0" parent="1">
          <mxGeometry x="280" y="68" width="377" height="166" as="geometry" />
        </mxCell>
        <mxCell id="4gN3m5vvTqZ1XDgv7lfD-2" value="API接口&lt;br&gt;（不含云API）" style="whiteSpace=wrap;html=1;rounded=0;strokeWidth=2;fontStyle=1" vertex="1" parent="4gN3m5vvTqZ1XDgv7lfD-32">
          <mxGeometry y="66" width="120" height="60" as="geometry" />
        </mxCell>
        <mxCell id="4gN3m5vvTqZ1XDgv7lfD-4" value="腾讯自研云" style="text;html=1;align=center;verticalAlign=middle;whiteSpace=wrap;rounded=0;fontStyle=1" vertex="1" parent="4gN3m5vvTqZ1XDgv7lfD-32">
          <mxGeometry x="39" width="81" height="30" as="geometry" />
        </mxCell>
        <mxCell id="4gN3m5vvTqZ1XDgv7lfD-10" value="" style="endArrow=classic;html=1;rounded=0;exitX=1;exitY=0.5;exitDx=0;exitDy=0;strokeWidth=2;" edge="1" parent="4gN3m5vvTqZ1XDgv7lfD-32" source="4gN3m5vvTqZ1XDgv7lfD-2">
          <mxGeometry width="50" height="50" relative="1" as="geometry">
            <mxPoint x="156" y="95" as="sourcePoint" />
            <mxPoint x="251" y="45" as="targetPoint" />
            <Array as="points">
              <mxPoint x="251" y="45" />
            </Array>
          </mxGeometry>
        </mxCell>
        <mxCell id="4gN3m5vvTqZ1XDgv7lfD-12" value="" style="verticalLabelPosition=bottom;verticalAlign=top;html=1;shape=mxgraph.basic.x;fillColor=#f8cecc;strokeColor=#b85450;" vertex="1" parent="4gN3m5vvTqZ1XDgv7lfD-32">
          <mxGeometry x="220" y="50" width="9" height="16" as="geometry" />
        </mxCell>
        <mxCell id="4gN3m5vvTqZ1XDgv7lfD-29" value="产品化能力" style="whiteSpace=wrap;html=1;rounded=0;strokeWidth=2;fontStyle=1;" vertex="1" parent="4gN3m5vvTqZ1XDgv7lfD-32">
          <mxGeometry x="251" y="9" width="81" height="54" as="geometry" />
        </mxCell>
        <mxCell id="4gN3m5vvTqZ1XDgv7lfD-30" value="单台母机" style="whiteSpace=wrap;html=1;rounded=0;strokeWidth=2;fontStyle=1;" vertex="1" parent="4gN3m5vvTqZ1XDgv7lfD-32">
          <mxGeometry x="251" y="90" width="81" height="54" as="geometry" />
        </mxCell>
        <mxCell id="4gN3m5vvTqZ1XDgv7lfD-31" value="" style="endArrow=classic;html=1;rounded=0;strokeWidth=2;exitX=1;exitY=0.5;exitDx=0;exitDy=0;" edge="1" parent="4gN3m5vvTqZ1XDgv7lfD-32" source="4gN3m5vvTqZ1XDgv7lfD-2">
          <mxGeometry width="50" height="50" relative="1" as="geometry">
            <mxPoint x="143" y="162" as="sourcePoint" />
            <mxPoint x="251" y="126" as="targetPoint" />
            <Array as="points">
              <mxPoint x="251" y="126" />
            </Array>
          </mxGeometry>
        </mxCell>
        <mxCell id="4gN3m5vvTqZ1XDgv7lfD-3" value="" style="edgeStyle=orthogonalEdgeStyle;rounded=0;orthogonalLoop=1;jettySize=auto;html=1;fontStyle=0;strokeWidth=2;" edge="1" parent="1" source="4gN3m5vvTqZ1XDgv7lfD-1">
          <mxGeometry relative="1" as="geometry">
            <mxPoint x="279" y="171" as="targetPoint" />
            <Array as="points">
              <mxPoint x="212" y="279" />
              <mxPoint x="212" y="171" />
              <mxPoint x="279" y="171" />
            </Array>
          </mxGeometry>
        </mxCell>
        <mxCell id="4gN3m5vvTqZ1XDgv7lfD-1" value="&lt;b&gt;&lt;font style=&quot;font-size: 14px;&quot;&gt;手工修改DB&lt;/font&gt;&lt;/b&gt;" style="rounded=0;whiteSpace=wrap;html=1;strokeWidth=2;" vertex="1" parent="1">
          <mxGeometry x="18" y="261" width="117" height="57" as="geometry" />
        </mxCell>
        <mxCell id="4gN3m5vvTqZ1XDgv7lfD-33" value="" style="group" vertex="1" connectable="0" parent="1">
          <mxGeometry x="279" y="315" width="396" height="225" as="geometry" />
        </mxCell>
        <mxCell id="4gN3m5vvTqZ1XDgv7lfD-34" value="" style="rounded=1;whiteSpace=wrap;html=1;fillColor=#DAE8FC;" vertex="1" parent="4gN3m5vvTqZ1XDgv7lfD-33">
          <mxGeometry x="-18" y="-18" width="414" height="243" as="geometry" />
        </mxCell>
        <mxCell id="4gN3m5vvTqZ1XDgv7lfD-22" value="" style="rounded=0;orthogonalLoop=1;jettySize=auto;html=1;exitX=1;exitY=0.25;exitDx=0;exitDy=0;strokeWidth=2;entryX=0;entryY=0.5;entryDx=0;entryDy=0;" edge="1" parent="4gN3m5vvTqZ1XDgv7lfD-33" source="4gN3m5vvTqZ1XDgv7lfD-7" target="4gN3m5vvTqZ1XDgv7lfD-15">
          <mxGeometry relative="1" as="geometry">
            <mxPoint x="216" y="23" as="targetPoint" />
          </mxGeometry>
        </mxCell>
        <mxCell id="4gN3m5vvTqZ1XDgv7lfD-7" value="售卖池&lt;br&gt;(资源管理)" style="whiteSpace=wrap;html=1;rounded=0;strokeWidth=2;fontStyle=1" vertex="1" parent="4gN3m5vvTqZ1XDgv7lfD-33">
          <mxGeometry y="95" width="126" height="54" as="geometry" />
        </mxCell>
        <mxCell id="4gN3m5vvTqZ1XDgv7lfD-15" value="云API" style="whiteSpace=wrap;html=1;rounded=0;strokeWidth=2;fontStyle=1;" vertex="1" parent="4gN3m5vvTqZ1XDgv7lfD-33">
          <mxGeometry x="250" width="97" height="42" as="geometry" />
        </mxCell>
        <mxCell id="4gN3m5vvTqZ1XDgv7lfD-23" value="产品化能力" style="whiteSpace=wrap;html=1;rounded=0;strokeWidth=2;fontStyle=1;" vertex="1" parent="4gN3m5vvTqZ1XDgv7lfD-33">
          <mxGeometry x="250" y="86" width="97" height="45" as="geometry" />
        </mxCell>
        <mxCell id="4gN3m5vvTqZ1XDgv7lfD-24" value="母机集合" style="whiteSpace=wrap;html=1;rounded=0;strokeWidth=2;fontStyle=1;" vertex="1" parent="4gN3m5vvTqZ1XDgv7lfD-33">
          <mxGeometry x="250" y="167" width="97" height="45" as="geometry" />
        </mxCell>
        <mxCell id="4gN3m5vvTqZ1XDgv7lfD-25" value="" style="rounded=0;orthogonalLoop=1;jettySize=auto;html=1;exitX=1;exitY=0.25;exitDx=0;exitDy=0;entryX=0;entryY=0.5;entryDx=0;entryDy=0;strokeWidth=2;" edge="1" parent="4gN3m5vvTqZ1XDgv7lfD-33" source="4gN3m5vvTqZ1XDgv7lfD-7" target="4gN3m5vvTqZ1XDgv7lfD-23">
          <mxGeometry relative="1" as="geometry">
            <mxPoint x="144" y="69" as="sourcePoint" />
            <mxPoint x="227" y="46" as="targetPoint" />
          </mxGeometry>
        </mxCell>
        <mxCell id="4gN3m5vvTqZ1XDgv7lfD-26" value="" style="rounded=0;orthogonalLoop=1;jettySize=auto;html=1;exitX=1;exitY=0.25;exitDx=0;exitDy=0;strokeWidth=2;entryX=0;entryY=0.5;entryDx=0;entryDy=0;" edge="1" parent="4gN3m5vvTqZ1XDgv7lfD-33" source="4gN3m5vvTqZ1XDgv7lfD-7" target="4gN3m5vvTqZ1XDgv7lfD-24">
          <mxGeometry relative="1" as="geometry">
            <mxPoint x="135" y="167" as="sourcePoint" />
            <mxPoint x="216" y="194" as="targetPoint" />
          </mxGeometry>
        </mxCell>
        <mxCell id="4gN3m5vvTqZ1XDgv7lfD-37" value="TCE企业专有云" style="text;html=1;align=center;verticalAlign=middle;whiteSpace=wrap;rounded=0;fontStyle=1" vertex="1" parent="4gN3m5vvTqZ1XDgv7lfD-33">
          <mxGeometry x="31" width="86" height="27" as="geometry" />
        </mxCell>
        <mxCell id="4gN3m5vvTqZ1XDgv7lfD-8" value="" style="edgeStyle=orthogonalEdgeStyle;rounded=0;orthogonalLoop=1;jettySize=auto;html=1;exitX=1;exitY=0.75;exitDx=0;exitDy=0;entryX=0;entryY=0.5;entryDx=0;entryDy=0;strokeWidth=2;" edge="1" parent="1" source="4gN3m5vvTqZ1XDgv7lfD-1" target="4gN3m5vvTqZ1XDgv7lfD-7">
          <mxGeometry relative="1" as="geometry">
            <mxPoint x="54" y="342" as="sourcePoint" />
            <mxPoint x="222" y="457.5" as="targetPoint" />
          </mxGeometry>
        </mxCell>
      </root>
    </mxGraphModel>
  </diagram>
</mxfile>
